<svg width="64" height="64" viewBox="0 0 64 64" fill="none" xmlns="http://www.w3.org/2000/svg">
  <rect width="64" height="64" rx="16" fill="#0B1220"/>
  <path d="M41.5 33.5C41.5 29.6 44.7 27.7 44.8 27.6C43 25.1 40.2 24.8 39.2 24.8C36.9 24.5 34.8 26.1 33.6 26.1C32.4 26.1 30.5 24.8 28.6 24.9C26.2 25 24 26.3 22.7 28.3C20.1 32.3 22 38.1 24.6 41.2C25.9 42.8 27.4 44.6 29.4 44.5C31.3 44.4 32 43.3 34.4 43.3C36.8 43.3 37.4 44.5 39.5 44.5C41.6 44.5 42.9 42.8 44.1 41.2C45.6 39.3 46.2 37.4 46.2 37.3C46.1 37.3 41.5 35.5 41.5 33.5Z" fill="#E5E7EB"/>
  <path d="M38.3 22.1C39.3 20.9 40 19.2 39.8 17.5C38.2 17.6 36.2 18.6 35.1 19.8C34.1 20.9 33.4 22.7 33.6 24.3C35.4 24.4 37.2 23.3 38.3 22.1Z" fill="#E5E7EB"/>
</svg>
