<svg width="64" height="64" viewBox="0 0 64 64" fill="none" xmlns="http://www.w3.org/2000/svg">
  <rect width="64" height="64" rx="16" fill="#0B1220"/>
  <path d="M54 32.5C54 30.9 53.9 29.7 53.6 28.3H32V36.6H44.8C44.5 38.6 43.2 41.6 40.3 43.6L40.3 49H47.6C51.8 45.2 54 39.6 54 32.5Z" fill="#4285F4"/>
  <path d="M32 54C38.1 54 43.2 52 47.6 49L40.3 43.6C38.3 45 35.7 45.9 32 45.9C26.1 45.9 21.1 41.9 19.3 36.4L11.8 36.9V42.5C16.1 50.6 23.6 54 32 54Z" fill="#34A853"/>
  <path d="M19.3 36.4C18.8 34.9 18.5 33.3 18.5 31.6C18.5 29.9 18.8 28.3 19.2 26.8L11.6 21.1C9.9 24.4 9 28.1 9 31.6C9 35.1 9.9 38.8 11.6 42.1L19.3 36.4Z" fill="#FBBC05"/>
  <path d="M32 17.1C36.2 17.1 39.1 18.9 40.8 20.4L47.8 13.5C43.2 9.2 38.1 7 32 7C23.6 7 16.1 10.4 11.8 18.5L19.2 26.8C21.1 21.3 26.1 17.1 32 17.1Z" fill="#EA4335"/>
</svg>
